<svg width="228" height="228" viewBox="0 0 228 228" fill="none" xmlns="http://www.w3.org/2000/svg">
<rect width="228" height="228" rx="40" fill="url(#paint0_linear_5196_68876)"/>
<g clip-path="url(#clip0_5196_68876)">
<path d="M67.8186 175.75C64.0975 175.75 60.5093 174.296 57.7185 171.783C54.7948 169.007 53.2 165.304 53.2 161.338V102.232C53.2 97.7364 55.1935 93.6373 58.7817 90.9928L105.295 55.2915C110.478 51.3247 117.655 51.3247 122.705 55.2915L169.218 90.9928C172.807 93.7696 174.8 97.8686 174.8 102.232L174.667 161.47C174.667 165.437 173.072 169.271 170.149 171.916C167.225 174.692 163.371 176.015 159.384 175.883C142.24 175.089 126.957 172.312 114.066 168.213C101.176 172.445 85.8925 175.089 68.7489 175.883C68.3502 175.75 68.0844 175.75 67.8186 175.75ZM113.934 58.8616C112.339 58.8616 110.611 59.3905 109.282 60.4484L62.7685 96.1497C60.908 97.6042 59.8448 99.852 59.8448 102.1L59.9777 161.338C59.9777 163.585 60.908 165.569 62.3698 167.023C63.9646 168.478 66.0909 169.271 68.3502 169.139C81.2411 168.478 93.0689 166.759 103.568 164.114C80.9753 154.33 67.8186 138.991 67.8186 120.215C67.8186 107.389 76.4568 98.7942 89.3478 98.7942C96.2584 98.7942 105.96 103.025 114.066 109.372C122.173 103.025 131.875 98.7942 138.785 98.7942C151.676 98.7942 160.314 107.389 160.314 120.215C160.314 138.859 147.158 154.197 124.565 164.114C135.064 166.759 146.892 168.478 159.783 169.139C162.042 169.271 164.168 168.478 165.763 167.023C167.358 165.569 168.155 163.585 168.155 161.338L168.288 102.1C168.288 99.7198 167.225 97.4719 165.364 96.1497L118.851 60.4484C117.256 59.3905 115.661 58.8616 113.934 58.8616ZM89.3478 105.538C80.045 105.538 74.4634 111.091 74.4634 120.347C74.4634 137.933 89.3478 152.478 114.066 161.073C138.785 152.478 153.67 137.933 153.67 120.347C153.67 111.091 148.088 105.538 138.785 105.538C133.602 105.538 125.894 108.976 119.249 114C119.382 114.133 119.515 114.265 119.515 114.265C124.167 119.025 129.748 126.297 129.748 134.628C129.615 148.776 118.452 151.817 114.199 151.817C108.485 151.817 98.7834 148.247 98.6505 134.628C98.5176 126.297 104.099 119.025 108.884 114.265C109.016 114.133 109.149 114 109.149 114C102.239 108.976 94.3978 105.538 89.3478 105.538ZM113.934 118.232C113.668 118.496 113.535 118.628 113.269 118.893C107.953 124.314 105.03 129.868 105.03 134.495C105.162 144.677 112.472 145.206 113.934 145.206C114.066 145.206 122.705 145.074 122.838 134.495C122.838 129.868 119.914 124.314 114.598 118.893C114.465 118.628 114.199 118.496 113.934 118.232Z" fill="#417054"/>
</g>
<defs>
<linearGradient id="paint0_linear_5196_68876" x1="5.225" y1="-1.72763e-07" x2="228" y2="228" gradientUnits="userSpaceOnUse">
<stop stop-color="#F7F7F7"/>
<stop offset="1" stop-color="#E7E7E7"/>
</linearGradient>
<clipPath id="clip0_5196_68876">
<rect width="121.6" height="123.5" fill="white" transform="translate(53.2 52.25)"/>
</clipPath>
</defs>
</svg>
