<?xml version="1.0" encoding="UTF-8"?>
<svg width="50px" height="57px" viewBox="0 0 50 57" version="1.1" xmlns="http://www.w3.org/2000/svg" xmlns:xlink="http://www.w3.org/1999/xlink">
    <!-- Generator: Sketch 58 (84663) - https://sketch.com -->
    <title>Group 19 Copy</title>
    <desc>Created with Sketch.</desc>
    <g id="Page-1" stroke="none" stroke-width="1" fill="none" fill-rule="evenodd" stroke-linecap="round" stroke-linejoin="round">
        <g id="Landing_1440px" transform="translate(-123.000000, -3185.000000)" stroke="#333333" stroke-width="1.1267797">
            <g id="Group-19-Copy" transform="translate(124.000000, 3186.000000)">
                <path d="M1.267728,20.762671 L21.119196,1.22813499 C22.790292,-0.414149012 25.49862,-0.414149012 27.140904,1.25694699 L46.329696,20.445739 C47.136432,21.252475 47.597424,22.347331 47.597424,23.470999 L47.597424,50.727151 C47.597424,52.916863 45.95514,54.760831 43.765428,54.991327 C37.16748,55.682815 23.942772,55.855687 19.275228,46.923967 C14.751744,38.280367 25.325748,33.843319 28.351008,40.383643 C31.174584,46.491787 22.012368,54.760831 4.264176,54.616771 C1.901592,54.587959 -8.52651283e-14,52.686367 -8.52651283e-14,50.323783 L-8.52651283e-14,23.787931 C-8.52651283e-14,22.664263 0.460992,21.569407 1.267728,20.762671 Z" id="Path"></path>
                <circle id="Oval" cx="11.38074" cy="28.397851" r="4.926852"></circle>
                <path d="M37.02342,30.846871 L30.2526,30.846871 C28.66794,30.846871 27.3714,29.550331 27.3714,27.965671 L27.3714,27.965671 C27.3714,26.381011 28.66794,25.084471 30.2526,25.084471 L37.02342,25.084471 C38.60808,25.084471 39.90462,26.381011 39.90462,27.965671 L39.90462,27.965671 C39.90462,29.550331 38.60808,30.846871 37.02342,30.846871 Z" id="Path"></path>
            </g>
        </g>
    </g>
</svg>