<?xml version="1.0" encoding="UTF-8"?>
<svg width="48px" height="57px" viewBox="0 0 48 57" version="1.1" xmlns="http://www.w3.org/2000/svg" xmlns:xlink="http://www.w3.org/1999/xlink">
    <!-- Generator: Sketch 58 (84663) - https://sketch.com -->
    <title>avatar</title>
    <desc>Created with Sketch.</desc>
    <g id="Welcome" stroke="none" stroke-width="1" fill="none" fill-rule="evenodd">
        <g id="Desktop-Copy-5" transform="translate(-266.000000, -1976.000000)">
            <g id="avatar" transform="translate(256.000000, 1972.000000)">
                <g id="Group-3" transform="translate(11.200000, 5.600000)" stroke="#333333" stroke-linecap="round" stroke-linejoin="round" stroke-width="1.6">
                    <path d="M14.3138462,44.7563157 C13.9899972,46.4497521 13.4142658,48.1431885 12.5506686,49.6893696 C12.1908364,50.3520186 12.4427189,51.1251092 13.0904168,51.4564337 C14.3498294,52.0822689 16.4728392,53.0394286 19.0276476,53.6652638 C21.7983553,54.3647267 25.1088112,54.732865 28.4192671,53.9965883 C29.1029483,53.849333 29.5347469,53.1866839 29.4267972,52.4872211 C29.1389315,51.0146677 28.9590154,48.25363 30.1824448,44.7195018 C30.3263776,44.3145497 30.6862098,43.9832251 31.1180084,43.9095975 C38.4226014,42.6579271 44,36.1418782 44,28.3005314 C44,23.8828711 42.2368224,19.9069769 39.3941483,16.998684 C35.4719776,13.0596036 29.0309818,13.6854388 25.8284755,18.2871682 C23.9573483,20.9745782 20.8987748,23.7356158 16.0770238,24.4718925 C14.9255609,24.6559617 13.7740979,24.4718925 12.6586182,24.140568 C12.0469035,23.9564988 11.291256,24.0301265 10.4996252,24.8400309 C8.62849794,26.7911641 9.92389374,32.4604947 12.11887,32.9758884 C12.298786,33.0127023 12.4787021,33.0495161 12.622635,33.0495161 C13.2343497,33.0495161 13.8820476,33.4912821 14.1339301,34.0803035 L14.1339301,34.0803035 C14.1699133,34.1539312 14.8895777,35.7369261 14.4937623,37.8721285" id="Path"></path>
                    <path d="M35.2,35.2 C35.2,35.2 32.1207547,38.2203799 25.6,35.9614403" id="Path"></path>
                    <path d="M14.1056962,44.8 C5.80822785,41.3028759 0,32.9834018 0,23.2650781 C0,10.4177486 10.2094937,0 22.8,0 C35.3905063,0 45.6,10.4177486 45.6,23.2650781 C45.6,26.9830731 44.4455696,30.5906327 42.9303797,33.7196385" id="Path"></path>
                </g>
                <rect id="Rectangle-Copy" x="0" y="0" width="67.2" height="65.6"></rect>
            </g>
        </g>
    </g>
</svg>