<?xml version="1.0" encoding="UTF-8"?>
<svg width="57px" height="56px" viewBox="0 0 57 56" version="1.1" xmlns="http://www.w3.org/2000/svg" xmlns:xlink="http://www.w3.org/1999/xlink">
    <!-- Generator: Sketch 58 (84663) - https://sketch.com -->
    <title>pet</title>
    <desc>Created with Sketch.</desc>
    <g id="Welcome" stroke="none" stroke-width="1" fill="none" fill-rule="evenodd">
        <g id="Desktop-Copy-5" transform="translate(-921.000000, -1976.000000)">
            <g id="pet" transform="translate(916.000000, 1972.000000)">
                <g id="Group-24" transform="translate(6.400000, 5.600000)">
                    <path d="M23.7835542,39.2314714 C21.3471335,40.6970424 18.6586693,41.4729329 15.8861906,41.3867228 C13.1977263,40.8694625 10.5932766,40.179782 8.07284141,39.2314714 C4.20817409,37.7659003 3.2,33.7140275 3.2,30.8690956 C3.2,29.2311044 4.54423211,27.4206932 5.38437719,26.1275423 C6.64459479,24.3171311 10.4252476,22.3342997 9.50108804,20.8687287 C8.66094296,19.6617878 8.07284141,18.1962168 7.82079789,16.6444357 C7.65276888,13.8857138 8.40889944,11.1269919 10.0891896,8.88553039 C11.8534942,6.2992286 14.1218859,4.05776705 16.8103502,2.41977592 C19.4147999,0.781784789 22.4393221,-0.080315807 25.4638444,0.00589425254 C33.2771936,0.350734491 39.4102526,7.59237949 39.4102526,7.59237949 C42.6028038,9.9200511 45.2912681,12.8511931 47.5596598,16.1271754 C52.5165157,23.9722908 57.2213281,33.3691873 52.3484867,42.4212436 C48.9879064,48.6283678 43.3589344,54.2320217 36.3857303,53.5423412 C29.5805552,52.8526608 26.4720185,46.9903767 26.892091,40.5246222 C27.3961781,32.0760364 34.6214257,23.7998707 29.5805552,15.2650748 C29.5805552,15.2650748 27.06012,10.6959416 29.3285117,7.85100967" id="Path" stroke="#333333" stroke-width="1.6" stroke-linecap="round" stroke-linejoin="round"></path>
                    <path d="M15.2,42.3836084 C14.9528562,44.0406577 14.3761874,45.5232808 13.5523748,46.9186907 C12.4814184,48.2268876 11.080937,49.0990188 9.43331175,49.4478713 C8.52711788,49.7095106 7.53854276,49.6222975 6.63234889,49.273445 C5.23186746,48.4885269 4.07852981,47.2675432 3.2547172,45.7849202 C2.26614207,44.215084 1.44232947,42.5580347 0.70089812,40.7265591 C-0.617202051,37.3252474 0.124229296,33.48787 1.27756695,30.1737714 C2.18376081,27.731804 3.33709846,25.3770497 4.32567359,22.9350823 C5.1494862,21.0163936 5.39662998,20.3186887 6.22044259,18.4" id="Path" stroke="#333333" stroke-width="1.6" stroke-linecap="round" stroke-linejoin="round"></path>
                    <path d="M8.8,39.2 C9.34193548,41.0465001 10.8129032,42.3054775 12.516129,42.3894093 C13.7548387,42.4733411 14.9935484,42.053682 16,41.2982956" id="Path" stroke="#333333" stroke-width="1.248" stroke-linecap="round" stroke-linejoin="round"></path>
                    <path d="M26.4,42.9865459 C25.9051546,42.2162426 24.0082474,42.7554549 24.0082474,42.7554549 C19.7195876,44.2190311 18.4,41.6 18.4,41.6" id="Path" stroke="#333333" stroke-width="1.6" stroke-linecap="round" stroke-linejoin="round"></path>
                    <path d="M3.31638922,30.5889719 C3.47301656,29.9658383 4.64772164,29.2536855 6.37062241,29.7878001 C8.09352319,30.3219146 9.11160092,30.9450483 9.50316928,31.4791629 C9.89473764,32.0132775 9.11160092,36.0191369 6.91881812,36.6422706 C4.72603531,37.2654042 4.33446695,35.8410987 4.33446695,35.8410987 C4.33446695,35.8410987 2.76819352,32.6364112 3.31638922,30.5889719 Z" id="Path" fill="#333333" fill-rule="nonzero"></path>
                    <path d="M12.8,20 C12.65,20.0695652 10.4,21.6 10.4,21.6" id="Path" stroke="#333333" stroke-width="1.248" stroke-linecap="round" stroke-linejoin="round"></path>
                </g>
                <rect id="Rectangle-Copy-2" x="0" y="0" width="67.2" height="65.6"></rect>
            </g>
        </g>
    </g>
</svg>